<svg xmlns="http://www.w3.org/2000/svg" width="1024" height="1024" viewBox="0 0 1024 1024" version="1.1">
	<path d="M 0 512.001 L 0 1024.002 512.250 1023.751 L 1024.500 1023.500 1024.751 511.750 L 1025.002 0 512.501 0 L 0 0 0 512.001 M 0.496 512.500 C 0.496 794.100, 0.610 909.151, 0.750 768.168 C 0.890 627.186, 0.890 396.786, 0.750 256.168 C 0.610 115.551, 0.496 230.900, 0.496 512.500 M 498.112 173.581 C 480.899 178.210, 467.058 192.527, 461.403 211.552 C 459.257 218.771, 459.002 233.202, 460.881 241 C 465.996 262.224, 484.234 279.859, 503.108 281.832 C 506.624 282.199, 489.925 282.725, 466 283 C 423.871 283.484, 422.374 283.568, 418.500 285.653 C 410.130 290.157, 406.642 297.472, 408.878 305.837 C 410.324 311.249, 412.906 314.337, 418.500 317.347 C 422.316 319.401, 423.962 319.514, 454.208 319.802 L 485.915 320.104 485.416 326.302 C 484.060 343.159, 481.053 398.387, 481.469 398.802 C 481.730 399.064, 482.356 398.202, 482.860 396.889 C 483.941 394.068, 495.309 366.956, 501.681 352 C 504.142 346.225, 506.398 340.712, 506.694 339.750 C 507.517 337.078, 510.429 337.665, 511.652 340.750 C 513.448 345.282, 528.938 382.076, 531.543 388 C 532.873 391.025, 533.967 392.825, 533.973 392 C 533.980 391.175, 532.867 376.325, 531.500 359 C 530.133 341.675, 529.012 325.813, 529.008 323.750 L 529 320 535.556 320 L 542.112 320 544.193 324.750 C 547.582 332.484, 554.813 342.993, 560.518 348.475 C 568.200 355.855, 575.736 359.397, 584.725 359.851 L 591.961 360.217 597.345 370.358 C 610.465 395.074, 609.546 392.805, 607.697 395.935 C 600.898 407.446, 601.723 430.794, 609.533 447.852 C 611.589 452.344, 611.807 453.528, 610.693 454.152 C 609.938 454.575, 608.293 455.752, 607.039 456.768 C 604.484 458.836, 601.853 458.364, 650.500 464.565 C 660.950 465.897, 670.480 467.215, 671.677 467.494 C 675.814 468.458, 674.632 471.108, 666.500 479.104 L 658.500 486.970 773.568 486.985 C 902.016 487.002, 893.591 487.460, 905.005 479.838 C 912.593 474.771, 918.829 467.106, 924.052 456.427 C 926.223 451.987, 928 448.049, 928 447.677 C 928 447.305, 871.300 447, 802 447 L 676 447 676 442.112 C 676 439.423, 674.871 433.327, 673.491 428.565 C 665.968 402.606, 648.595 384.563, 629.829 383.220 C 621.971 382.658, 623.269 384.185, 612.011 362.260 L 605.725 350.019 607.906 344.773 C 612.968 332.590, 612.689 317.517, 607.099 301.300 C 600.203 281.292, 585.593 265.485, 570.298 261.482 C 567.109 260.648, 563.360 260.212, 561.967 260.514 C 560.062 260.927, 558.784 260.375, 556.804 258.282 L 554.173 255.500 557.236 246.500 C 559.904 238.662, 560.295 236.144, 560.265 227 C 560.209 209.967, 554.404 196.230, 542.664 185.354 C 530.155 173.764, 513.650 169.402, 498.112 173.581 M 502.803 195.351 C 478.794 202.062, 471.980 235.209, 491.080 252.382 C 499.944 260.352, 511.872 262.145, 522.334 257.080 L 527.139 254.754 524.692 252.127 C 519.367 246.411, 518.893 243.469, 522.589 239.077 C 525.769 235.297, 531.265 234.847, 535.317 238.035 L 537.904 240.070 539.063 235.785 C 541.740 225.893, 538.258 211.920, 531.080 203.744 C 524.643 196.412, 512.210 192.722, 502.803 195.351 M 537.740 273.380 C 531.185 278.040, 523.924 280.994, 516.648 281.960 C 511.796 282.604, 513.514 282.747, 524.803 282.638 L 539.106 282.500 541.548 276.500 C 542.892 273.200, 543.993 270.387, 543.995 270.250 C 544.012 269.371, 541.876 270.439, 537.740 273.380 M 563.870 287.888 C 559.888 291.020, 558.676 295.050, 559.211 303.383 C 560.025 316.062, 567.757 329.236, 576.711 333.196 C 580.497 334.871, 581.267 334.915, 584.340 333.631 C 591.242 330.748, 592.878 318.376, 587.996 305.989 C 582.279 291.486, 570.516 282.660, 563.870 287.888 M 496.576 374.500 C 490.018 389.900, 479.555 414.413, 473.326 428.973 C 467.097 443.534, 462 455.902, 462 456.459 C 462 457.016, 472.462 473.178, 485.250 492.376 L 508.500 527.281 508.760 482.140 C 508.903 457.313, 508.903 416.638, 508.760 391.750 L 508.500 346.500 496.576 374.500 M 510.040 436.750 C 510.018 486.388, 510.154 527, 510.343 527 C 510.532 527, 521.170 511.261, 533.983 492.025 L 557.281 457.050 535.025 404.275 C 522.784 375.249, 512.164 350.375, 511.424 349 C 510.290 346.890, 510.074 360.582, 510.040 436.750 M 629.002 411.653 C 624.077 415.147, 623.708 416.214, 624.197 425.528 C 624.552 432.304, 625.221 435.008, 627.878 440.405 L 631.125 447 643.094 447 C 657.099 447, 656.888 447.175, 655.082 437.069 C 652.994 425.388, 646.200 414.224, 638.875 410.435 C 635.109 408.488, 633.117 408.733, 629.002 411.653 M 96 447.658 C 96 448.041, 97.777 451.987, 99.948 456.427 C 105.171 467.106, 111.407 474.771, 118.995 479.838 C 130.396 487.451, 122.322 487.002, 247.432 486.985 L 359.500 486.970 351.500 479.104 C 343.373 471.113, 342.177 468.436, 346.323 467.521 C 347.520 467.257, 363.980 465.014, 382.900 462.537 C 401.820 460.060, 417.481 457.852, 417.703 457.631 C 418.443 456.890, 411.576 453.245, 404 450.358 L 396.500 447.500 246.250 447.231 C 163.612 447.083, 96 447.275, 96 447.658 M 403.774 463.910 C 375.875 467.600, 352.824 470.842, 352.551 471.116 C 352.278 471.389, 386.744 484.323, 429.142 499.858 C 471.541 515.393, 506.426 527.907, 506.666 527.667 C 506.906 527.428, 496.616 511.440, 483.801 492.139 C 461.627 458.743, 460.355 457.050, 457.500 457.124 C 455.850 457.167, 431.673 460.221, 403.774 463.910 M 535.182 492.127 C 522.358 511.416, 512.067 527.401, 512.314 527.648 C 512.562 527.895, 547.501 515.373, 589.957 499.822 C 642.361 480.626, 666.563 471.318, 665.325 470.837 C 663.559 470.152, 563.028 456.970, 560 457.028 C 559.153 457.043, 548.342 472.334, 535.182 492.127 M 360 481.612 C 364.675 486.496, 382.777 505.048, 400.228 522.837 L 431.955 555.181 468.728 542.966 C 488.952 536.247, 505.811 530.469, 506.191 530.125 C 506.682 529.680, 364.255 476.776, 352.712 473.116 C 352.045 472.904, 355.325 476.728, 360 481.612 M 588.810 501.331 C 546.631 516.824, 512.431 529.771, 512.810 530.103 C 513.190 530.434, 529.896 536.197, 549.936 542.909 L 586.372 555.112 608.752 532.806 C 636.314 505.337, 667.535 472.972, 666.367 473.081 C 665.890 473.126, 630.990 485.838, 588.810 501.331 M 147 506.462 C 147 524.382, 156.616 535.437, 177.672 541.725 C 183.003 543.317, 191.693 543.491, 279.500 543.758 C 332.300 543.919, 384.275 543.927, 395 543.775 L 414.500 543.500 392.530 521.250 L 370.560 499 258.780 499 L 147 499 147 506.462 M 625 521.500 L 602.517 544 718.300 544 C 847.783 544, 842.674 544.258, 857.687 536.951 C 871.219 530.364, 877 521.238, 877 506.462 L 877 499 762.242 499 L 647.483 499 625 521.500 M 469.455 543.652 L 432.409 556.030 422.122 613.265 C 416.463 644.744, 411.616 671.438, 411.350 672.583 C 410.997 674.105, 411.355 674.667, 412.675 674.667 C 413.670 674.667, 433.838 662.888, 457.492 648.492 C 481.146 634.096, 502.409 621.233, 504.742 619.909 L 508.985 617.500 508.992 575.250 C 508.997 552.013, 508.799 533, 508.554 533 C 508.308 533, 486.866 564.733, 460.904 603.517 C 434.942 642.301, 413.507 673.841, 413.272 673.605 C 413.036 673.369, 434.117 641.425, 460.119 602.619 C 486.121 563.812, 507.193 531.884, 506.947 531.668 C 506.701 531.451, 489.830 536.844, 469.455 543.652 M 512 531.902 C 512 532.294, 533.159 564.268, 559.020 602.955 C 584.880 641.642, 605.865 673.468, 605.653 673.681 C 605.440 673.893, 583.944 642.214, 557.883 603.284 L 510.500 532.500 510.239 574.439 C 510.095 597.505, 510.320 616.709, 510.739 617.114 C 513.191 619.488, 604.817 674.683, 606.293 674.676 C 607.692 674.669, 607.967 674.100, 607.545 672.083 C 607.107 669.994, 595.902 607.480, 588.441 565.500 L 586.841 556.500 549.421 543.844 C 528.839 536.883, 512 531.509, 512 531.902 M 197.013 557.250 C 197.038 561.351, 202.577 575.524, 206.416 581.308 C 211.134 588.415, 217.587 594.159, 224.879 597.739 L 230.500 600.500 325.479 600.500 L 420.458 600.500 422.191 591.500 C 426.796 567.574, 428.110 557.838, 426.927 556.412 C 425.930 555.211, 408.663 555, 311.378 555 L 197 555 197.013 557.250 M 591.278 555.807 C 590.037 556.596, 591.272 566.273, 595.771 591 L 597.500 600.500 695.500 600.500 L 793.500 600.500 799.121 597.739 C 806.598 594.068, 813.002 588.282, 817.969 580.712 C 821.818 574.846, 827 561.210, 827 556.948 C 827 555.028, 825.303 555, 709.750 555.015 C 645.263 555.024, 591.950 555.380, 591.278 555.807 M 332.604 615.100 C 331.586 618.283, 323.013 679.346, 323.514 679.848 C 323.814 680.148, 327.907 679.140, 332.609 677.609 C 337.311 676.077, 341.282 674.977, 341.434 675.162 C 341.586 675.348, 344.997 681.942, 349.014 689.815 C 362.305 715.864, 378.188 738.155, 395.141 754.551 C 406.311 765.353, 412.976 769.942, 440 785.434 C 478.510 807.511, 492.813 818.681, 504.415 835.740 L 509.330 842.967 521.915 830.703 C 541.594 811.526, 556.791 800.354, 588 782.123 C 624.087 761.041, 639.883 747.085, 657.177 721 C 662.970 712.264, 672.880 693.415, 679.095 679.313 L 680.500 676.126 689.500 679.051 C 694.450 680.660, 698.983 681.981, 699.573 681.988 C 700.606 682, 692.026 617.692, 690.834 616.501 C 690.331 615.997, 643.778 655.520, 643.234 656.913 C 643.088 657.287, 646.688 659.094, 651.234 660.927 C 655.780 662.760, 659.896 664.620, 660.380 665.060 C 661.660 666.223, 654.781 678.203, 647.411 687.646 C 629.175 711.013, 599.393 728.996, 568.500 735.296 C 562.162 736.588, 561.437 736.571, 560.833 735.112 C 560.467 734.225, 558.761 714.600, 557.042 691.500 C 554.966 663.595, 553.511 649.127, 552.708 648.389 C 552.044 647.778, 546.100 643.995, 539.500 639.983 C 532.900 635.970, 523.522 630.250, 518.661 627.271 C 513.077 623.849, 509.215 622.087, 508.174 622.487 C 506.412 623.163, 479.884 639.122, 471.391 644.615 L 466.282 647.920 465.660 656.210 C 465.319 660.770, 464.081 680.925, 462.910 701 C 461.739 721.075, 460.492 737.775, 460.140 738.112 C 458.891 739.307, 445.383 736.222, 437.522 732.947 C 420.530 725.868, 398.904 708.560, 382.500 688.909 C 374.344 679.140, 366.311 668.134, 365.827 666.065 C 365.592 665.060, 367.988 664.086, 374.388 662.585 L 383.275 660.500 360.842 639.500 C 331.230 611.779, 333.139 613.429, 332.604 615.100" stroke="none" fill="black" fill-rule="evenodd"/>
</svg>